<svg xmlns="http://www.w3.org/2000/svg" xmlns:xlink="http://www.w3.org/1999/xlink" width="500" zoomAndPan="magnify" viewBox="0 0 375 374.999991" height="500" preserveAspectRatio="xMidYMid meet" version="1.0"><defs><clipPath id="d2a872c3b1"><path d="M 60 71.808594 L 314.984375 71.808594 L 314.984375 303.558594 L 60 303.558594 Z M 60 71.808594 " clip-rule="nonzero"/></clipPath><clipPath id="9d420eb21a"><path d="M 0.046875 1 L 254.984375 1 L 254.984375 232 L 0.046875 232 Z M 0.046875 1 " clip-rule="nonzero"/></clipPath><clipPath id="4e7722ffb3"><rect x="0" width="255" y="0" height="233"/></clipPath></defs><g clip-path="url(#d2a872c3b1)"><g transform="matrix(1, 0, 0, 1, 60, 71)"><g clip-path="url(#4e7722ffb3)"><g clip-path="url(#9d420eb21a)"><path fill="#ffffff" d="M 75.523438 77.101562 C 75.730469 76.742188 75.96875 76.410156 76.230469 76.105469 C 75.398438 65.820312 73.414062 55.417969 70.074219 45.167969 C 68.042969 38.925781 65.503906 32.738281 62.410156 26.667969 C 59.75 39.140625 55.203125 50.949219 48.953125 61.765625 C 42.71875 72.566406 34.78125 82.402344 25.332031 90.925781 C 32.710938 90.488281 39.878906 89.386719 46.820312 87.753906 C 56.707031 85.433594 66.144531 82.046875 75.097656 77.972656 C 75.222656 77.679688 75.363281 77.386719 75.523438 77.101562 M 88.5 68.625 L 119.773438 50.59375 L 161.078125 26.742188 C 163.089844 25.320312 165.820312 25.101562 168.097656 26.417969 L 209.933594 50.570312 L 251.726562 74.730469 L 251.761719 74.753906 L 251.804688 74.777344 L 251.898438 74.832031 L 251.9375 74.855469 L 251.980469 74.886719 L 252.035156 74.921875 L 252.070312 74.9375 L 252.109375 74.96875 L 252.164062 75 L 252.195312 75.023438 L 252.234375 75.050781 L 252.277344 75.082031 L 252.289062 75.085938 L 252.320312 75.109375 L 252.359375 75.140625 L 252.402344 75.171875 L 252.441406 75.199219 L 252.492188 75.230469 L 252.53125 75.257812 L 252.542969 75.269531 L 252.566406 75.296875 L 252.609375 75.324219 L 252.652344 75.359375 L 252.667969 75.371094 L 252.691406 75.390625 L 252.734375 75.425781 L 252.773438 75.460938 L 252.792969 75.472656 L 252.8125 75.492188 L 252.851562 75.527344 L 252.886719 75.5625 L 252.90625 75.578125 L 252.921875 75.597656 L 252.957031 75.632812 L 252.996094 75.667969 L 253.019531 75.6875 L 253.035156 75.703125 L 253.078125 75.738281 L 253.191406 75.851562 L 253.230469 75.894531 L 253.253906 75.917969 L 253.265625 75.933594 L 253.304688 75.976562 L 253.363281 76.042969 L 253.375 76.054688 L 253.410156 76.09375 L 253.445312 76.136719 L 253.46875 76.167969 L 253.480469 76.179688 L 253.515625 76.21875 L 253.550781 76.261719 L 253.574219 76.289062 L 253.582031 76.300781 L 253.617188 76.34375 L 253.648438 76.386719 L 253.683594 76.433594 L 253.710938 76.472656 L 253.746094 76.515625 L 253.777344 76.558594 L 253.8125 76.597656 L 253.929688 76.777344 L 253.992188 76.871094 L 254.019531 76.917969 L 254.050781 76.964844 L 254.078125 77.015625 L 254.109375 77.0625 L 254.136719 77.109375 L 254.164062 77.164062 L 254.191406 77.214844 L 254.222656 77.261719 L 254.25 77.308594 L 254.296875 77.417969 L 254.324219 77.464844 L 254.347656 77.511719 L 254.371094 77.566406 L 254.417969 77.667969 L 254.429688 77.703125 L 254.433594 77.71875 L 254.457031 77.773438 L 254.476562 77.8125 L 254.488281 77.851562 L 254.496094 77.867188 L 254.519531 77.921875 L 254.535156 77.972656 L 254.546875 78.003906 L 254.554688 78.027344 L 254.578125 78.082031 L 254.605469 78.15625 L 254.613281 78.183594 L 254.628906 78.234375 L 254.648438 78.28125 L 254.65625 78.304688 L 254.667969 78.335938 L 254.683594 78.390625 L 254.695312 78.441406 L 254.703125 78.460938 L 254.714844 78.496094 L 254.75 78.613281 L 254.773438 78.644531 L 254.785156 78.703125 L 254.800781 78.769531 L 254.8125 78.808594 L 254.828125 78.863281 L 254.84375 78.921875 L 254.863281 79.023438 L 254.875 79.082031 L 254.886719 79.128906 L 254.890625 79.179688 L 254.902344 79.230469 L 254.910156 79.285156 L 254.914062 79.335938 L 254.921875 79.390625 L 254.925781 79.445312 L 254.933594 79.496094 L 254.9375 79.550781 L 254.945312 79.605469 L 254.945312 79.65625 L 254.949219 79.710938 L 254.957031 79.765625 L 254.960938 79.816406 L 254.960938 79.871094 L 254.96875 79.929688 L 254.972656 79.984375 L 254.972656 80.039062 L 254.980469 80.089844 L 254.980469 80.457031 L 255.011719 176.972656 C 255.011719 179.417969 253.664062 181.542969 251.671875 182.652344 L 209.921875 206.761719 L 209.578125 206.945312 L 168.613281 230.601562 C 166.605469 232.023438 163.871094 232.234375 161.59375 230.925781 L 119.753906 206.769531 L 77.917969 182.613281 L 77.929688 182.589844 C 75.988281 181.46875 74.6875 179.371094 74.695312 176.960938 L 74.695312 129.0625 L 74.683594 128.671875 L 74.683594 92.300781 C 66.734375 95.59375 58.445312 98.359375 49.820312 100.386719 C 36.066406 103.613281 21.496094 104.972656 6.164062 103.597656 C 2.597656 103.269531 -0.0351562 100.109375 0.289062 96.535156 C 0.492188 94.347656 1.761719 92.503906 3.53125 91.492188 C 17.847656 81.988281 29.425781 69.585938 37.703125 55.257812 C 46.042969 40.8125 51.003906 24.4375 52.019531 7.132812 C 52.238281 3.558594 55.304688 0.835938 58.878906 1.058594 C 60.929688 1.175781 62.703125 2.242188 63.792969 3.800781 L 63.816406 3.789062 C 72.175781 15.71875 78.273438 28.3125 82.453125 41.148438 C 85.386719 50.230469 87.375 59.4375 88.5 68.625 Z M 158.347656 176.992188 L 158.347656 132.4375 L 87.652344 91.621094 L 87.652344 128.664062 L 87.640625 129.082031 L 87.640625 173.214844 L 126.257812 195.511719 L 158.363281 214.046875 Z M 126.246094 61.8125 L 164.808594 39.535156 L 126.25 61.800781 Z M 222.832031 146.859375 C 220.679688 150.59375 221.953125 155.367188 225.691406 157.519531 C 229.417969 159.671875 234.195312 158.394531 236.347656 154.660156 C 238.507812 150.925781 237.226562 146.152344 233.492188 144.003906 C 229.761719 141.851562 224.988281 143.125 222.832031 146.859375 Z M 222.832031 146.859375 " fill-opacity="1" fill-rule="evenodd"/></g></g></g></g></svg>